<svg width="176" height="61" viewBox="0 0 176 61" fill="none" xmlns="http://www.w3.org/2000/svg">
<path d="M10.574 42.408C9.37267 42.408 8.25067 42.2607 7.208 41.966C6.16533 41.6713 5.236 41.2633 4.42 40.742C3.604 40.198 2.924 39.5973 2.38 38.94C1.85867 38.2827 1.51867 37.5913 1.36 36.866L5.916 35.506C6.21067 36.2767 6.732 36.9453 7.48 37.512C8.228 38.056 9.16867 38.3393 10.302 38.362C11.5033 38.3847 12.478 38.124 13.226 37.58C13.9967 37.036 14.382 36.3333 14.382 35.472C14.382 34.724 14.076 34.1007 13.464 33.602C12.8747 33.0807 12.0587 32.684 11.016 32.412L7.922 31.596C6.766 31.3013 5.746 30.8593 4.862 30.27C3.978 29.658 3.28667 28.91 2.788 28.026C2.28933 27.142 2.04 26.1107 2.04 24.932C2.04 22.688 2.77667 20.9427 4.25 19.696C5.746 18.4267 7.854 17.792 10.574 17.792C12.0927 17.792 13.4187 18.0187 14.552 18.472C15.708 18.9027 16.6713 19.526 17.442 20.342C18.2127 21.158 18.802 22.1213 19.21 23.232L14.688 24.626C14.416 23.8553 13.9173 23.198 13.192 22.654C12.4667 22.11 11.5487 21.838 10.438 21.838C9.30467 21.838 8.40933 22.0987 7.752 22.62C7.11733 23.1413 6.8 23.878 6.8 24.83C6.8 25.578 7.04933 26.1673 7.548 26.598C8.06933 27.0287 8.772 27.3573 9.656 27.584L12.784 28.366C14.824 28.8647 16.4107 29.76 17.544 31.052C18.6773 32.344 19.244 33.7833 19.244 35.37C19.244 36.7753 18.904 38.0107 18.224 39.076C17.544 40.1187 16.558 40.9347 15.266 41.524C13.974 42.1133 12.41 42.408 10.574 42.408ZM30.7843 42.408C29.0163 42.408 27.441 42.034 26.0583 41.286C24.6757 40.5153 23.599 39.4613 22.8283 38.124C22.0577 36.764 21.6723 35.2227 21.6723 33.5C21.6723 31.7547 22.0577 30.2133 22.8283 28.876C23.599 27.5387 24.6643 26.496 26.0243 25.748C27.3843 24.9773 28.9483 24.592 30.7163 24.592C32.4163 24.592 33.969 25.0113 35.3743 25.85C36.7797 26.6887 37.7997 27.9013 38.4343 29.488L34.2183 30.984C33.901 30.3267 33.4023 29.8053 32.7223 29.42C32.065 29.012 31.3283 28.808 30.5123 28.808C29.6737 28.808 28.937 29.012 28.3023 29.42C27.6677 29.8053 27.169 30.3493 26.8063 31.052C26.4437 31.7547 26.2623 32.5707 26.2623 33.5C26.2623 34.4293 26.4437 35.2453 26.8063 35.948C27.169 36.628 27.679 37.172 28.3363 37.58C28.9937 37.988 29.7417 38.192 30.5803 38.192C31.3963 38.192 32.133 37.9767 32.7903 37.546C33.4703 37.1153 33.969 36.5487 34.2863 35.846L38.5363 37.342C37.879 38.9513 36.8477 40.198 35.4423 41.082C34.0597 41.966 32.507 42.408 30.7843 42.408ZM44.3129 33.058C44.3129 31.222 44.6642 29.7033 45.3669 28.502C46.0922 27.3007 47.0102 26.4053 48.1209 25.816C49.2542 25.2267 50.4329 24.932 51.6569 24.932V29.284C50.6142 29.284 49.6282 29.4087 48.6989 29.658C47.7922 29.9073 47.0556 30.3153 46.4889 30.882C45.9222 31.4487 45.6389 32.174 45.6389 33.058H44.3129ZM41.1509 42V25H45.6389V42H41.1509ZM54.3057 42V25H58.7937V42H54.3057ZM56.5497 22.246C55.8697 22.246 55.269 21.9967 54.7477 21.498C54.2264 20.9767 53.9657 20.3647 53.9657 19.662C53.9657 18.9593 54.2264 18.3587 54.7477 17.86C55.269 17.3387 55.8697 17.078 56.5497 17.078C57.2524 17.078 57.853 17.3387 58.3517 17.86C58.873 18.3587 59.1337 18.9593 59.1337 19.662C59.1337 20.3647 58.873 20.9767 58.3517 21.498C57.853 21.9967 57.2524 22.246 56.5497 22.246ZM63.1021 48.8V25H67.3181L67.5901 28.128V48.8H63.1021ZM72.7241 42.408C71.2961 42.408 70.0835 42.0453 69.0861 41.32C68.1115 40.5947 67.3635 39.5633 66.8421 38.226C66.3208 36.8887 66.0601 35.3133 66.0601 33.5C66.0601 31.664 66.3208 30.0887 66.8421 28.774C67.3635 27.4367 68.1115 26.4053 69.0861 25.68C70.0835 24.9547 71.2961 24.592 72.7241 24.592C74.2881 24.592 75.6368 24.9547 76.7701 25.68C77.9261 26.4053 78.8215 27.4367 79.4561 28.774C80.0908 30.0887 80.4081 31.664 80.4081 33.5C80.4081 35.3133 80.0908 36.8887 79.4561 38.226C78.8215 39.5633 77.9261 40.5947 76.7701 41.32C75.6368 42.0453 74.2881 42.408 72.7241 42.408ZM71.5681 38.294C72.3841 38.294 73.0981 38.09 73.7101 37.682C74.3448 37.274 74.8435 36.7073 75.2061 35.982C75.5688 35.2567 75.7501 34.4293 75.7501 33.5C75.7501 32.5707 75.5688 31.7433 75.2061 31.018C74.8661 30.2927 74.3788 29.7373 73.7441 29.352C73.1321 28.944 72.4181 28.74 71.6021 28.74C70.8315 28.74 70.1401 28.944 69.5281 29.352C68.9161 29.76 68.4401 30.3267 68.1001 31.052C67.7601 31.7547 67.5901 32.5707 67.5901 33.5C67.5901 34.4293 67.7601 35.2567 68.1001 35.982C68.4401 36.7073 68.9048 37.274 69.4941 37.682C70.1061 38.09 70.7975 38.294 71.5681 38.294ZM90.3561 42.408C88.4747 42.408 87.0467 41.9433 86.0721 41.014C85.1201 40.0847 84.6441 38.7587 84.6441 37.036V19.696H89.1321V36.05C89.1321 36.7753 89.2907 37.3307 89.6081 37.716C89.9254 38.0787 90.3901 38.26 91.0021 38.26C91.2287 38.26 91.4781 38.2147 91.7501 38.124C92.0221 38.0107 92.3054 37.852 92.6001 37.648L94.1641 41.014C93.6201 41.422 93.0081 41.7507 92.3281 42C91.6707 42.272 91.0134 42.408 90.3561 42.408ZM81.8901 28.808V25H93.3821V28.808H81.8901ZM108.252 42L107.98 38.872V25H112.468V42H108.252ZM96.7258 33.704V25H101.214V33.704H96.7258ZM101.214 33.704C101.214 34.8373 101.338 35.7327 101.588 36.39C101.86 37.0247 102.234 37.4893 102.71 37.784C103.208 38.056 103.764 38.192 104.376 38.192C105.554 38.2147 106.45 37.8633 107.062 37.138C107.674 36.39 107.98 35.3133 107.98 33.908H109.51C109.51 35.7213 109.238 37.2627 108.694 38.532C108.15 39.7787 107.402 40.742 106.45 41.422C105.498 42.0793 104.376 42.408 103.084 42.408C101.724 42.408 100.568 42.136 99.6158 41.592C98.6638 41.048 97.9384 40.2093 97.4398 39.076C96.9638 37.92 96.7258 36.4353 96.7258 34.622V33.704H101.214ZM119.518 33.058C119.518 31.222 119.869 29.7033 120.572 28.502C121.297 27.3007 122.215 26.4053 123.326 25.816C124.459 25.2267 125.638 24.932 126.862 24.932V29.284C125.819 29.284 124.833 29.4087 123.904 29.658C122.997 29.9073 122.261 30.3153 121.694 30.882C121.127 31.4487 120.844 32.174 120.844 33.058H119.518ZM116.356 42V25H120.844V42H116.356ZM136.923 42.408C135.245 42.408 133.761 42.034 132.469 41.286C131.177 40.5153 130.157 39.4613 129.409 38.124C128.683 36.7867 128.321 35.2453 128.321 33.5C128.321 31.7547 128.695 30.2133 129.443 28.876C130.213 27.5387 131.256 26.496 132.571 25.748C133.908 24.9773 135.438 24.592 137.161 24.592C138.657 24.592 140.028 24.9887 141.275 25.782C142.544 26.5527 143.553 27.6973 144.301 29.216C145.071 30.712 145.457 32.5367 145.457 34.69H132.571L132.979 34.282C132.979 35.1207 133.183 35.8573 133.591 36.492C134.021 37.104 134.565 37.58 135.223 37.92C135.903 38.2373 136.628 38.396 137.399 38.396C138.328 38.396 139.087 38.2033 139.677 37.818C140.266 37.41 140.719 36.8887 141.037 36.254L145.049 37.818C144.573 38.77 143.949 39.5973 143.179 40.3C142.431 40.98 141.535 41.5013 140.493 41.864C139.45 42.2267 138.26 42.408 136.923 42.408ZM133.217 31.766L132.809 31.358H141.003L140.629 31.766C140.629 30.95 140.436 30.304 140.051 29.828C139.665 29.3293 139.189 28.9667 138.623 28.74C138.079 28.5133 137.546 28.4 137.025 28.4C136.503 28.4 135.948 28.5133 135.359 28.74C134.769 28.9667 134.259 29.3293 133.829 29.828C133.421 30.304 133.217 30.95 133.217 31.766ZM163.171 39.722V24.014H166.809V39.722H163.171ZM157.119 33.704V30.066H172.827V33.704H157.119Z" fill="black"/>
</svg>
